<svg width="100%" viewBox="0 0 948 1480" fill="none" xmlns="http://www.w3.org/2000/svg">
                    <defs>
                      <mask id="home-journey-svg-mask">
<path d="M781.244 80.3838C713.752 147.095 506.021 277.396 316.888 180.957C167.845 104.96 68.8953 180.957 22.6438 269.964C-32.3476 375.791 30.7194 869.031 361.827 714.731C678.353 567.226 999.883 688.964 933.256 944.815C832.057 1333.42 824.266 1510.08 824.266 1510.08" stroke="#FFF" stroke-width="9" stroke-linecap="square" style="stroke-dashoffset: 0; stroke-dasharray: 1795.72px, 1126.38px;"></path>
<circle cx="824.928" cy="1510.47" r="10.5" fill="#FFF"></circle>
<!--<circle cx="895.857" cy="750.459" r="11.033" fill="#FFF" stroke="#F7F8F9" stroke-width="4"/>-->
<path d="M812.816 38.6992C812.816 57.6354 778.816 93.4111 778.816 93.4111C778.816 93.4111 744.816 57.6354 744.816 38.6992C744.816 29.6055 748.398 20.8842 754.775 14.4539C761.151 8.02362 769.799 4.41113 778.816 4.41113C787.834 4.41113 796.482 8.02362 802.858 14.4539C809.234 20.8842 812.816 29.6055 812.816 38.6992Z" fill="#FFF"></path>
<path d="M766.311 41.7843V45.1324C766.311 51.5333 771.022 56.2477 776.832 56.2477C780.457 56.2477 783.655 54.4013 785.51 51.5948V55.7307H790.393V41.7843H777.296V46.5726H782.691C782.178 49.1083 779.908 51.0163 777.235 51.0163C774.22 51.0163 771.742 48.6529 771.742 45.1324V41.7843H766.311ZM769.02 40.0733C770.644 40.0733 771.938 38.8055 771.938 37.1314C771.938 35.4574 770.644 34.1895 769.02 34.1895C767.397 34.1895 766.103 35.4574 766.103 37.1314C766.103 38.8055 767.397 40.0733 769.02 40.0733ZM778.285 21.3633C771.535 21.3633 766.311 25.8808 766.311 32.4785H771.742C771.742 29.0566 774.562 26.5947 778.26 26.5947C781.959 26.5947 784.778 29.0566 784.778 32.4785H790.21C790.185 25.8808 784.998 21.3633 778.285 21.3633Z" fill="white"></path>
</mask></defs>
  <g mask="url(#home-journey-svg-mask)">
  <path d="M781.244 80.3838C713.752 147.095 506.021 277.396 316.888 180.957C167.845 104.96 68.8953 180.957 22.6438 269.964C-32.3476 375.791 30.7194 869.031 361.827 714.731C678.353 567.226 999.883 688.964 933.256 944.815C832.057 1333.42 824.266 1510.08 824.266 1510.08" stroke="#FF5533" stroke-width="9" stroke-linecap="square" stroke-dasharray="8 18"></path>
<circle cx="824.928" cy="1510.47" r="10.5" fill="#FF5533"></circle>
<circle cx="895.857" cy="750.459" r="11.033" fill="#FF5533" stroke="#F7F8F9" stroke-width="4"></circle>
<path d="M812.816 38.6992C812.816 57.6354 778.816 93.4111 778.816 93.4111C778.816 93.4111 744.816 57.6354 744.816 38.6992C744.816 29.6055 748.398 20.8842 754.775 14.4539C761.151 8.02362 769.799 4.41113 778.816 4.41113C787.834 4.41113 796.482 8.02362 802.858 14.4539C809.234 20.8842 812.816 29.6055 812.816 38.6992Z" fill="#FF5533"></path>
<path d="M766.311 41.7843V45.1324C766.311 51.5333 771.022 56.2477 776.832 56.2477C780.457 56.2477 783.655 54.4013 785.51 51.5948V55.7307H790.393V41.7843H777.296V46.5726H782.691C782.178 49.1083 779.908 51.0163 777.235 51.0163C774.22 51.0163 771.742 48.6529 771.742 45.1324V41.7843H766.311ZM769.02 40.0733C770.644 40.0733 771.938 38.8055 771.938 37.1314C771.938 35.4574 770.644 34.1895 769.02 34.1895C767.397 34.1895 766.103 35.4574 766.103 37.1314C766.103 38.8055 767.397 40.0733 769.02 40.0733ZM778.285 21.3633C771.535 21.3633 766.311 25.8808 766.311 32.4785H771.742C771.742 29.0566 774.562 26.5947 778.26 26.5947C781.959 26.5947 784.778 29.0566 784.778 32.4785H790.21C790.185 25.8808 784.998 21.3633 778.285 21.3633Z" fill="white"></path>
  </g>
  </svg>