<?xml version="1.0" encoding="utf-8"?>
<!-- Generator: Adobe Illustrator 27.0.0, SVG Export Plug-In . SVG Version: 6.00 Build 0)  -->
<svg version="1.1" id="Layer_1" xmlns="http://www.w3.org/2000/svg" xmlns:xlink="http://www.w3.org/1999/xlink" x="0px" y="0px"
	 viewBox="0 0 1238.9 290.7" style="enable-background:new 0 0 1238.9 290.7;" xml:space="preserve">
<style type="text/css">
	.st0{fill:#F8E9B4;}
	.st1{fill:#DCCD8B;}
	.st2{fill:url(#SVGID_1_);}
	.st3{fill:url(#SVGID_00000046329627868253047110000004755578988152355488_);}
	.st4{fill:#D7B038;}
	.st5{fill:#FFFFFF;}
</style>
<g>
	<g id="Layer_1_00000166639321027002944040000017594956740610736571_">
		<g>
			<rect x="620.6" y="9.9" class="st0" width="1" height="274.8"/>
			<g>
				<path class="st1" d="M160.7,76.4c-1,1.5-2.5,3.4-4.7,5.5c-2.4-1.9-4.2-3.6-5.3-4.9c1.4-1.3,3.1-3.1,5.2-5.4
					C156.5,72.2,158.1,73.8,160.7,76.4L160.7,76.4z M159.9,89.6c0-0.8,0.2-1.6,0.6-2.3c0.4-0.7,0.9-1.2,1.5-1.5
					c2.4,0.8,4.7,2.2,7,4.2s4.2,4.3,5.7,7c1.6,2.7,2.3,5.1,2.3,7.3c0,1.6-0.6,3.8-1.9,6.5c-1.2,2.8-2.4,4.5-3.6,5.3
					c-2.2,1.5-4.9,2.2-7.9,2.2s-5.4-0.9-7.1-2.6c-1.8-1.8-2.7-4.2-2.7-7.4c0-2.5,0.6-5,1.9-7.5c1.3-2.5,3.3-5.1,6-7.7
					c-0.8-0.5-1.4-1.1-1.6-1.7C160,90.8,159.9,90.2,159.9,89.6L159.9,89.6z M157.6,106c0,1.9,0.6,3.4,1.8,4.4
					c1.2,1.1,2.9,1.6,5.2,1.6c1.4,0,3-0.4,4.7-1.2c1.7-0.8,3-1.6,3.8-2.4c-1.1-5.3-4.1-9.8-9-13.6c-2,1.8-3.6,3.8-4.7,5.8
					C158.2,102.7,157.7,104.5,157.6,106L157.6,106z M172.8,75.2c-1,1.6-2.6,3.4-4.8,5.5c-2.3-1.8-4-3.4-5.3-4.9
					c0.6-0.5,2.3-2.3,5.2-5.4C168.5,71.1,170.2,72.7,172.8,75.2L172.8,75.2z"/>
				<path class="st1" d="M205.1,118.4c-2.5,0-4.7-0.7-6.5-1.9c-0.9,5.6-3,10-6.2,13.3c-3.2,3.3-7,5-11.5,5c-1.3,0-3-0.5-5.2-1.5
					c-2.2-1-4-2-5.2-3l1.1-2.7c2.9,0.6,5.4,0.9,7.5,0.9c4,0,7.4-1.2,10.3-3.6c2.8-2.4,5-5.8,6.5-10.4c-0.7-1.7-1.5-3.4-2.4-5
					c-1.9-3.2-3.2-5.8-4.1-7.8c-0.9-2-1.3-3.6-1.3-4.9s0.4-2.4,1.2-3.3s2-1.6,3.4-2.3c0.4,1.5,0.9,3.1,1.6,4.8
					c1.7,4.4,2.8,7.7,3.4,9.7s0.9,3.7,1.1,5c1.8,1.1,3.9,1.6,6.2,1.6c0.4,0,0.7,0.2,0.7,0.7v4.8
					C205.8,118.2,205.6,118.4,205.1,118.4L205.1,118.4z M194.1,80.6c-1.2,1.8-3,3.8-5.2,5.9c-2.4-1.9-4.3-3.6-5.7-5.2
					c2.7-2.7,4.6-4.7,5.6-5.9C190.4,77.2,192.2,79,194.1,80.6L194.1,80.6z"/>
				<path class="st1" d="M204.4,118.4c-0.4,0-0.7-0.2-0.7-0.7V113c0-0.4,0.2-0.7,0.7-0.7c2.4,0,4.9-0.3,7.5-0.8
					c2.6-0.5,4.8-1.2,6.7-2.1c-0.7-2.5-1.6-5.4-2.9-8.8c-1-2.8-1.5-4.5-1.5-5.3c0-1.2,0.5-2.4,1.4-3.6c0.9-1.2,2.2-2.3,3.8-3.2
					c0.2,1.5,0.9,4.6,1.9,9.2c0.8,3.5,1.1,6.2,1.1,8.2c0,0.8-0.2,1.9-0.7,3.4c-0.5,1.5-1.2,3.1-2.1,4.8
					C214.7,116.9,209.6,118.4,204.4,118.4L204.4,118.4z M216.8,74.2l0.1-0.4c0-0.2-0.1-0.5-0.3-0.7c-0.2-0.2-0.5-0.4-0.9-0.4
					c-0.9,0-1.7,0.3-2.5,1c-0.8,0.7-1.3,1.4-1.6,2.4c0.9,1.2,2.2,1.7,4.1,1.7c1.3,0,2.8-0.2,4.5-0.6l-0.2,3.4
					c-2.1,0.6-3.9,1.1-5.4,1.7c-1.5,0.6-3.3,1.4-5.5,2.6l-0.2-3.4l1.7-1l1.8-1c-2.2-0.4-3.2-1.6-3.2-3.6c0-1.7,0.7-3.3,2.1-4.8
					c1.4-1.5,2.9-2.2,4.4-2.2c1.3,0,2.2,0.3,2.7,1c0.5,0.6,0.8,1.4,0.8,2.3c0,0.7-0.2,1.5-0.6,2.4L216.8,74.2L216.8,74.2z"/>
				<path class="st1" d="M240,113v4.8c0,0.4-0.2,0.7-0.7,0.7c-3.1,0-5.8-0.6-7.8-1.9s-3.2-2.9-3.5-5.1c-0.9-6.8-1.8-17.4-2.7-31.6
					l-0.8-10.7c1.5-1.5,3.3-3,5.4-4.4c0.4,8.1,0.6,19.6,0.9,34.5l0.3,11c2.5,1.4,5.3,2.1,8.3,2.1C239.8,112.3,240,112.5,240,113
					L240,113z"/>
				<path class="st1" d="M238.7,118.4c-0.4,0-0.7-0.2-0.7-0.7V113c0-0.4,0.2-0.7,0.7-0.7c7.8,0,14-0.7,18.5-2l4.5-1.5
					c3-1.2,5.7-1.9,8-2.3c-2.1-1-4.1-2.4-6.2-4c-2.2-1.7-3.9-2.9-5.2-3.5c-1.3-0.7-2.7-1-4.1-1c-2.6,0-4.8,0.7-6.9,1.9l-1.9,1.2
					c-0.8-0.8-1.2-1.8-1.2-3.1c0-2,0.9-3.6,2.7-4.8c1.8-1.2,4.1-1.8,7-1.8c1.7,0,3.4,0.4,5.1,1.1c1.7,0.7,3.7,1.9,6,3.6
					c2.8,2.1,5.2,3.6,7.1,4.6c2,1,3.9,1.8,5.9,2.2c2,0.4,4.9,0.7,8.8,0.7l-3,5.9c-1.7-0.2-3.2-0.3-4.5-0.4l-0.3,0l-1.6,0
					c-1.9,0-3.6,0.3-5.3,0.8s-4.3,1.7-7.8,3.6c-4,2.1-7.6,3.4-10.8,4.1C250.2,118.1,245.3,118.4,238.7,118.4L238.7,118.4z
					 M269.5,128.6c-1.2,1.8-3,3.8-5.2,5.9c-2.3-1.8-4.2-3.5-5.7-5.2c2.4-2.3,4.3-4.3,5.6-5.9C266.1,125.3,267.8,127.1,269.5,128.6z"
					/>
				<path class="st1" d="M48.6,221.9H11.2v-5.4L26.5,201c2.8-2.9,5.2-5.4,7.2-7.7s3.4-4.4,4.4-6.6c1-2.2,1.5-4.6,1.5-7.2
					c0-3.2-1-5.7-2.9-7.4c-1.9-1.7-4.4-2.6-7.6-2.6c-2.7,0-5.2,0.5-7.3,1.4s-4.3,2.3-6.5,4l-3.5-4.4c1.5-1.3,3.2-2.4,4.9-3.4
					c1.8-1,3.7-1.8,5.7-2.3c2-0.6,4.2-0.9,6.5-0.9c3.5,0,6.5,0.6,9.1,1.8c2.5,1.2,4.5,3,5.9,5.2c1.4,2.3,2.1,5,2.1,8.1
					s-0.6,5.8-1.8,8.4s-2.9,5.2-5,7.7s-4.7,5.2-7.6,8.1l-12.4,12.4v0.3h29.2L48.6,221.9L48.6,221.9z"/>
				<path class="st1" d="M89.9,193.3c0,4.6-0.3,8.8-1.1,12.4c-0.7,3.6-1.8,6.7-3.3,9.3s-3.5,4.4-5.9,5.8s-5.3,2-8.6,2
					c-4.2,0-7.8-1.2-10.5-3.5c-2.8-2.3-4.8-5.7-6.2-10.1s-2-9.7-2-15.9s0.6-11.3,1.9-15.7s3.2-7.8,6-10.1s6.4-3.5,10.9-3.5
					c4.3,0,7.8,1.2,10.6,3.5c2.8,2.3,4.9,5.7,6.2,10.1S89.9,187.1,89.9,193.3L89.9,193.3z M58.7,193.3c0,5.3,0.4,9.7,1.2,13.3
					c0.8,3.5,2.1,6.2,3.9,7.9s4.2,2.6,7.1,2.6s5.3-0.9,7.1-2.6c1.8-1.7,3.1-4.4,3.9-7.9c0.8-3.5,1.2-8,1.2-13.3s-0.4-9.6-1.2-13.1
					c-0.8-3.5-2.1-6.2-3.9-8c-1.8-1.8-4.2-2.7-7.2-2.7s-5.4,0.9-7.2,2.7c-1.8,1.8-3.1,4.4-3.9,8C59.1,183.7,58.7,188,58.7,193.3
					L58.7,193.3z"/>
				<path class="st1" d="M117.2,221.9h-6.3v-40.5c0-1.5,0-2.9,0-4c0-1.1,0-2.1,0.1-3.1c0-0.9,0.1-1.9,0.2-2.8
					c-0.8,0.8-1.6,1.5-2.3,2.1s-1.6,1.3-2.6,2.2l-6.5,5.2l-3.4-4.4l15.5-11.9h5.4V221.9L117.2,221.9z"/>
				<path class="st1" d="M171.5,189.1c0,3.5-0.2,6.8-0.7,10.1s-1.3,6.3-2.5,9.2s-2.7,5.3-4.7,7.5c-2,2.1-4.5,3.8-7.4,5
					s-6.5,1.8-10.7,1.8c-1.1,0-2.4-0.1-3.8-0.2c-1.4-0.1-2.6-0.4-3.5-0.6v-5.6c1,0.3,2.1,0.6,3.4,0.8c1.3,0.2,2.6,0.3,3.8,0.3
					c4.9,0,8.7-1.1,11.5-3.1c2.8-2.1,4.8-4.9,6-8.6c1.2-3.6,1.9-7.7,2.1-12.2h-0.5c-0.8,1.2-1.8,2.4-3.1,3.5
					c-1.3,1.1-2.8,1.9-4.6,2.5s-3.9,1-6.3,1c-3.3,0-6.2-0.7-8.6-2c-2.5-1.4-4.4-3.3-5.7-5.9s-2.1-5.7-2.1-9.3
					c0-3.9,0.8-7.3,2.2-10.2c1.5-2.9,3.6-5.1,6.3-6.7c2.7-1.6,5.9-2.3,9.6-2.3c2.8,0,5.4,0.5,7.7,1.6s4.4,2.7,6.1,4.8
					c1.7,2.1,3.1,4.8,4,7.9S171.5,185,171.5,189.1L171.5,189.1z M152.2,169.5c-3.5,0-6.3,1.1-8.4,3.4s-3.2,5.7-3.2,10.2
					c0,3.8,0.9,6.8,2.8,8.9s4.7,3.3,8.6,3.3c2.7,0,4.9-0.5,6.9-1.6s3.4-2.4,4.5-4.1s1.6-3.3,1.6-5s-0.2-3.5-0.8-5.2
					c-0.5-1.8-1.3-3.4-2.3-4.9c-1-1.5-2.4-2.7-3.9-3.6S154.4,169.5,152.2,169.5L152.2,169.5z"/>
				<path class="st1" d="M222.4,221.9c-2.2,0-4-0.4-5.6-1.1s-3-1.7-4.2-3.1c-4.9,2.8-10.3,4.1-16.2,4.1c-3.3,0-5.7-0.4-7.3-1.3
					c-1.6-0.9-2.4-2.1-2.4-3.8c0-1.7,0.5-3.1,1.4-4.2c1.3,1.1,2.8,1.9,4.6,2.4s3.8,0.8,6.4,0.8c3.3,0,7-0.6,11.1-1.7
					c-2-3.5-3.7-7.2-5.1-10.9c-1.4-3.8-2.1-6.4-2.1-7.9c0-2.6,1.4-4.4,4.2-5.3c1.1,4,2.1,7.4,3,10.1c0.9,2.7,1.7,5,2.5,6.7
					c0.8,1.7,1.7,3.3,2.8,4.9s2.2,2.6,3.3,3.2c1.1,0.6,2.4,0.9,3.9,0.9c0.5,0,0.7,0.2,0.7,0.7v4.8
					C223.1,221.7,222.8,221.9,222.4,221.9L222.4,221.9z M207,179.5c-1.2,1.8-3,3.8-5.2,5.9c-2.4-1.9-4.3-3.6-5.7-5.2
					c2.7-2.7,4.6-4.7,5.6-5.9C203.4,176.1,205.2,177.9,207,179.5L207,179.5z"/>
				<path class="st1" d="M221.7,221.9c-0.4,0-0.7-0.2-0.7-0.7v-4.8c0-0.4,0.2-0.7,0.7-0.7c1.9,0,3.6-0.2,5-0.6
					c1.4-0.4,2.5-0.9,3.3-1.6s2-2.7,3.8-6l1.4-2.6c0.5-0.9,1.3-1.3,2.5-1.3c0.7,0,1.4,0.2,1.9,0.6c-1.1,2.8-2.4,5.6-3.9,8.5
					c1.9,1.1,3.5,1.9,5,2.3s3.2,0.7,5,0.7c0.4,0,0.7,0.2,0.7,0.7v4.8c0,0.4-0.2,0.7-0.7,0.7c-4.9,0-9.1-1.6-12.6-4.7l-1.3,1.8
					c-0.6,0.7-1.8,1.3-3.8,2S223.9,221.9,221.7,221.9L221.7,221.9z M238.7,193.2c-1.2,1.8-3,3.8-5.2,5.9c-2.4-1.9-4.3-3.6-5.7-5.2
					c2.7-2.7,4.6-4.7,5.6-5.9C235.1,189.8,236.8,191.5,238.7,193.2L238.7,193.2z"/>
				<path class="st1" d="M245.1,221.9c-0.4,0-0.7-0.2-0.7-0.7v-4.8c0-0.4,0.2-0.7,0.7-0.7c2,0,3.7-0.5,5.1-1.5
					c1.4-1,2.6-2.5,3.6-4.5l1.6-3.2c2.1-4.4,4.1-7.5,6-9.3c2-1.8,4.1-2.7,6.5-2.7c1.6,0,3.1,0.9,4.7,2.9c1.5,1.9,2.8,4.4,3.8,7.3
					c1,3,1.4,5.9,1.4,8.7c0,1.6-0.3,3.1-0.9,4.5s-1.6,2.6-3.2,3.9c-3.2,0-6.6-0.4-10.2-1.3c-3.6-0.9-6.6-2-9-3.4
					c-1.2,1.7-2.6,2.9-4.1,3.6S247.1,221.9,245.1,221.9L245.1,221.9z M272,215.8c-0.1-3.3-0.7-6.5-1.9-9.5s-2.3-4.5-3.4-4.5
					c-1,0-2,0.3-2.9,0.9c-0.9,0.6-1.8,1.5-2.7,2.8s-2.1,3.4-3.6,6.3C261.3,213.9,266.1,215.2,272,215.8z"/>
			</g>
			<g>
				<g>
					
						<image style="overflow:visible;opacity:0.25;enable-background:new    ;" width="1109" height="912" xlink:href="145DE78DEA25A192.png"  transform="matrix(0.2398 0 0 0.2398 313.0098 35.9887)">
					</image>
					<g>
						
							<linearGradient id="SVGID_1_" gradientUnits="userSpaceOnUse" x1="363.8698" y1="249.6498" x2="363.8698" y2="44.0798" gradientTransform="matrix(1 0 0 -1 0 289.8898)">
							<stop  offset="0" style="stop-color:#F4EBBB"/>
							<stop  offset="1" style="stop-color:#A17C15"/>
						</linearGradient>
						<path class="st2" d="M410.2,40.3v202.1h-47.6V105.8h-45V68.3h8.4c22.5,0,37-9.2,45.3-28L410.2,40.3L410.2,40.3z"/>
						
							<linearGradient id="SVGID_00000168079203150410000880000006266951739275773343_" gradientUnits="userSpaceOnUse" x1="494.7999" y1="249.6398" x2="494.7999" y2="44.0798" gradientTransform="matrix(1 0 0 -1 0 289.8898)">
							<stop  offset="0" style="stop-color:#F4EBBB"/>
							<stop  offset="1" style="stop-color:#A17C15"/>
						</linearGradient>
						<path style="fill:url(#SVGID_00000168079203150410000880000006266951739275773343_);" d="M514.7,120.8
							c32.3,3.8,55.2,27.4,55.2,60.1c0,39-30.6,65-77.7,65c-28.3,0-54.9-11-72.5-29.7l24.5-33.2c12.1,13,28.9,20.2,45.6,20.2
							c19.3,0,32.3-10.7,32.3-26.3c0-21.6-24-28.3-52-23.1l-11.5-25.1L504,80.4h-73V40.3H560v32.9L514.7,120.8L514.7,120.8z"/>
					</g>
				</g>
			</g>
		</g>
		<g>
			<g>
				<path class="st4" d="M981.8,108.1h-11.5l-11.2-48.7l-11.8,48.7h-11.6l-14.2-60.4h10.3l10,48.3l11.8-48.3H965L976.4,96l10.2-48.3
					h9.5L981.8,108.1L981.8,108.1z"/>
				<path class="st4" d="M1051.3,100.6c-5.3,5.9-12.2,8.8-20.7,8.8s-15.3-2.9-20.7-8.8c-5.3-5.9-8-13.5-8-22.8s2.6-16.8,8-22.6
					c5.3-5.9,12.3-8.8,20.8-8.8c8.5,0,15.3,2.9,20.6,8.7c5.2,5.8,7.9,13.3,7.9,22.5S1056.6,94.7,1051.3,100.6L1051.3,100.6z
					 M1043.4,61.3c-3.3-4.2-7.8-6.2-13.1-6.2s-9.5,2.2-12.7,6.4c-3.2,4.2-4.8,9.8-4.8,16.6s1.7,12.2,5.1,16.3
					c3.3,4.1,7.7,6.2,13,6.2c5.9,0,10.3-2.3,13.5-7.2c2.8-4.2,4.2-9.5,4.2-16S1046.8,65.4,1043.4,61.3L1043.4,61.3z"/>
				<path class="st4" d="M1103.1,108.1l-7.2-16.1c-1.8-4.1-3.5-6.6-5.2-7.6c-1.4-0.8-3.7-1.2-7.2-1.2h-2.5v24.9h-10.3V47.7h14.5
					c5.3,0,9,0.2,11,0.5c3.6,0.6,6.6,2.2,8.9,4.4c3.3,3.3,4.9,7.3,4.9,12.1c0,8.2-5.2,14.1-13.4,15.2c1.9,0.2,3.6,1.1,5.3,2.8
					c1.3,1.3,3,4.3,5.2,9.2l7.2,16.1L1103.1,108.1L1103.1,108.1z M1097.1,58.6c-1.2-1.2-2.8-2-4.9-2.3c-1-0.2-3.2-0.3-6.4-0.3h-4.9
					v19h4c5.8,0,9.7-1,11.8-3.1c1.8-1.8,2.7-4.1,2.7-6.9C1099.4,62.3,1098.7,60.1,1097.1,58.6L1097.1,58.6z"/>
				<path class="st4" d="M1125.6,108.1V47.7h10.5v51.7h24.3v8.7H1125.6z"/>
				<path class="st4" d="M1214.2,99.5c-3.7,3.7-8.2,6.2-13.7,7.3c-3.6,0.8-9,1.3-16,1.3h-13.3V47.7h15.5c6.8,0,11.9,0.4,15,1.1
					c4.9,1.1,9.1,3.3,12.5,6.8c5.6,5.6,8.4,12.9,8.4,21.8S1219.8,93.9,1214.2,99.5L1214.2,99.5z M1206.3,61.3
					c-2.4-2.4-5.2-3.9-8.6-4.6c-2.3-0.5-6.1-0.7-11.2-0.7h-4.8v43.7h7.2c8.1,0,14-2,17.8-6.1c3.6-3.9,5.4-9.3,5.4-16.5
					C1212.1,70.4,1210.2,65.2,1206.3,61.3z"/>
				<path class="st4" d="M951.7,125.4v51.9h-10.5v-51.9h-17.1v-8.5h44.7v8.5H951.7L951.7,125.4z"/>
				<path class="st4" d="M1009.8,177.3l-7.2-16.1c-1.8-4.1-3.5-6.6-5.2-7.6c-1.4-0.8-3.7-1.2-7.2-1.2h-2.5v24.9h-10.3v-60.4h14.5
					c5.3,0,9,0.2,11,0.6c3.6,0.6,6.6,2.2,8.9,4.4c3.3,3.3,4.9,7.3,4.9,12.1c0,8.2-5.2,14.1-13.4,15.2c1.9,0.2,3.6,1.1,5.3,2.8
					c1.3,1.3,3,4.4,5.2,9.1l7.2,16.1H1009.8L1009.8,177.3z M1003.9,127.8c-1.2-1.2-2.8-2-4.9-2.3c-1-0.2-3.2-0.3-6.4-0.3h-4.9v19h4
					c5.8,0,9.7-1,11.8-3.1c1.8-1.8,2.7-4.1,2.7-6.9C1006.1,131.5,1005.4,129.3,1003.9,127.8L1003.9,127.8z"/>
				<path class="st4" d="M1070.8,177.3l-4.8-14.1h-23.7l-4.8,14.1h-10.6l22-60.4h10.8l22,60.4H1070.8L1070.8,177.3z M1054,128
					l-9.1,26.9h18.2L1054,128L1054,128z"/>
				<path class="st4" d="M1109.3,177.3h-10.7l-20.9-60.4h10.7l15.8,48.7l16-48.7h10.2L1109.3,177.3L1109.3,177.3z"/>
				<path class="st4" d="M1139.6,177.3v-60.4h35v8.5h-24.7v16.5h23.2v8.3h-23.2v18.4h25.4v8.7L1139.6,177.3L1139.6,177.3z"/>
				<path class="st4" d="M1187.1,177.3v-60.4h10.5v51.7h24.3v8.7H1187.1z"/>
				<path class="st4" d="M961.1,240.1l-4.2-12.4H936l-4.2,12.4h-9.3l19.4-53.1h9.5l19.3,53.1H961.1L961.1,240.1z M946.4,196.8
					l-8,23.7h16L946.4,196.8z"/>
				<path class="st4" d="M1023.3,240.1h-10.1l-9.9-42.9L993,240.1h-10.2L970.3,187h9.1l8.8,42.4l10.4-42.4h10l10,42.4l9-42.4h8.4
					L1023.3,240.1L1023.3,240.1z"/>
				<path class="st4" d="M1074.6,240.1l-4.2-12.4h-20.9l-4.2,12.4h-9.3l19.4-53.1h9.5l19.3,53.1H1074.6z M1059.9,196.8l-8,23.7h16
					L1059.9,196.8z"/>
				<path class="st4" d="M1120.3,240.1l-6.4-14.2c-1.6-3.6-3.1-5.8-4.5-6.7c-1.2-0.7-3.3-1-6.4-1h-2.2v21.9h-9.1V187h12.8
					c4.7,0,7.9,0.2,9.6,0.5c3.2,0.6,5.8,1.9,7.8,3.9c2.9,2.9,4.3,6.4,4.3,10.7c0,7.2-4.5,12.4-11.8,13.4c1.7,0.2,3.2,1,4.7,2.5
					c1.1,1.1,2.6,3.8,4.5,8.1l6.4,14.2H1120.3L1120.3,240.1z M1115,196.6c-1-1-2.5-1.8-4.3-2c-0.9-0.2-2.8-0.2-5.7-0.2h-4.3v16.7
					h3.5c5.1,0,8.5-0.9,10.3-2.7c1.6-1.6,2.4-3.6,2.4-6.1S1116.4,197.9,1115,196.6L1115,196.6z"/>
				<path class="st4" d="M1176.1,232.6c-3.3,3.3-7.2,5.4-12,6.4c-3.2,0.7-7.9,1.1-14.1,1.1h-11.7V187h13.6c6,0,10.4,0.3,13.2,1
					c4.3,1,8,2.9,11,6c4.9,4.9,7.4,11.3,7.4,19.2S1181.1,227.6,1176.1,232.6L1176.1,232.6z M1169.2,199c-2.1-2.1-4.6-3.4-7.6-4.1
					c-2-0.4-5.3-0.6-9.9-0.6h-4.2v38.5h6.3c7.1,0,12.3-1.8,15.7-5.3c3.2-3.4,4.8-8.2,4.8-14.5C1174.3,207,1172.6,202.4,1169.2,199
					L1169.2,199z"/>
				<path class="st4" d="M1218.8,236.8c-3.3,3-7.7,4.5-13.3,4.5c-4.2,0-8.3-1-12.1-2.8c-2.4-1.2-4.1-2.2-4.9-3.2l4.2-6.4
					c4.5,2.9,8.7,4.5,12.4,4.5c6,0,9.4-3,9.4-7.8c0-2.3-1.2-4.3-3.6-5.9c-0.7-0.5-3.2-1.7-7.4-3.5c-3.9-1.8-6.7-3.3-8.2-4.5
					c-3.4-2.9-5.2-6.4-5.2-10.8s1.6-8,4.9-10.8c3.3-2.8,7.4-4.2,12.6-4.2c4.1,0,8,0.9,11.5,2.7c1.8,1,3.3,1.9,4.3,2.9l-4.3,5.9
					c-3.3-2.6-6.9-4-10.8-4c-5.3,0-9.1,2.7-9.1,6.8c0,1.8,0.8,3.4,2.3,4.5c1,0.8,3.6,2.1,7.5,3.7c4.9,2.1,8.3,4,10.3,5.8
					c3.1,2.8,4.6,6.4,4.6,10.7C1223.7,229.8,1222,233.8,1218.8,236.8L1218.8,236.8z"/>
			</g>
			<g>
				<path class="st4" d="M744.5,213.4c-47.1,0-85.3-38.2-85.3-85.3c0-3.7,0.2-7.3,0.7-10.8c0.1-0.9,0.2-1.7,0.4-2.6
					c4.7-30,25.2-54.9,52.6-65.8c0.7-0.3,1.4-0.5,2.1-0.8c9.2-3.4,19.2-5.3,29.6-5.3c3,0,5.9,0.2,8.7,0.4c0.6,0.1,1.3,0.1,1.9,0.2
					c5.7,0.7,11.2,2,16.5,3.8c0.6,0.2,1.3,0.4,1.9,0.7c32.8,11.9,56.3,43.3,56.3,80.2C829.8,175.2,791.6,213.4,744.5,213.4"/>
				<path class="st5" d="M744.5,209.9c-45.2,0-81.8-36.6-81.8-81.8c0-3.5,0.2-7,0.7-10.4c0.1-0.8,0.2-1.6,0.3-2.5
					c4.5-28.8,24.1-52.6,50.5-63.1c0.7-0.3,1.3-0.5,2-0.8c8.8-3.3,18.4-5,28.3-5c2.8,0,5.6,0.2,8.4,0.4c0.6,0.1,1.2,0.1,1.8,0.2
					c5.5,0.7,10.7,1.9,15.8,3.6c0.6,0.2,1.2,0.4,1.8,0.6c31.5,11.4,54,41.5,54,76.9C826.3,173.3,789.7,209.9,744.5,209.9"/>
				<g>
					<polygon class="st4" points="732.4,77.5 733.3,77.6 732.6,79.4 733.5,78.2 733.2,78.7 733.9,78.6 733.3,80.4 735.4,80 
						734.8,80.6 735.2,81.1 735.8,81 735.5,82.2 733.5,83 734.1,82.8 734.2,83.4 732.7,84.3 734.7,85 735.7,84.7 735.1,85.3 
						733.9,85.4 732,87 734.2,86.7 734.6,86.1 735.6,86.2 739.6,85.7 740.2,85.2 739.2,84.8 740.4,84 740.5,83.1 738.7,83 
						739.2,82.4 738.4,81.7 738.9,81.6 737.6,80.5 737.2,79.2 735.4,78.5 736.1,78.1 735.9,77.9 736.7,77.3 737.1,76.1 734.7,76.3 
						735,76 734.8,75.8 735.9,75.2 735.7,74.9 734,74.9 733.5,75.4 733.5,75.8 732.9,76.3 733.2,76.7 					"/>
					<polygon class="st4" points="731.4,83.9 731.9,81.3 732.8,80.6 732.2,79.7 731,79.9 730.9,79.4 730.6,79.9 730.6,79.6 
						729.9,79.7 729.2,80.4 729.8,80.5 729.3,81 728.1,80.9 727.6,81.3 728.2,81.6 727.6,81.9 727.8,82.3 728.7,82.4 727.7,83.3 
						728.9,83.2 727,83.9 727.5,84.1 727,84.4 727.7,84.4 727.2,84.8 					"/>
					<path class="st4" d="M720,62l-3-0.2l-2.6,0.4l1.5-0.4l-2.2-0.1l0.8-0.2l0.1-0.4l2.7-0.3l-1.5-0.3l-0.3-0.3l0.2-0.2l2.5,0.6
						l0.9,1h0.8l0.2-0.4l0.8,0.4l-0.3-0.7l0.5-0.6l-0.9,0.3l0.7-0.5l-1.1,0.2l0.7-0.4l-1.7-0.6l-0.9,0.4l0.2-0.4l0.8-0.2l-1.8-0.1
						l1.8-0.3l-1.6-0.3l0.8,0.1l1.8-0.7l1.4,0.7l1.8-0.3l0.2-0.4l-1.7-0.5l0.5-0.2l2.6,0.2l-1.6-0.2l0.4-0.4h-0.8l0.9-0.2l-1.1-0.3
						l2.1,0.4l0.3-0.7l-1.2-0.3l1.2-0.2l-1.7-0.2l-0.7-0.5l4.1-0.3v-0.3l-1.9-0.1l0.4-0.2l-0.3-0.2l1.2-0.1l-1.2-0.3l-1.1,0.3
						l1.2-0.9l-0.3-0.1l0.2-0.2l2-0.5l-0.7,0.2l0.4-0.5l1.8-0.4l-2.3,0.3l-0.1-0.3l3.6-0.5H725l5.4-0.3l-0.1-0.3l2.4-0.4l-2.6-0.7
						c0,0-0.1,0-0.1,0c-0.4,0-0.9-0.2-1.3-0.4c-0.4-0.2-0.8-0.4-1.2-0.4c-0.1,0-0.1,0-0.2,0l0.6,1.7l-2.2-1.5
						c-14.1,3.3-26.8,10.1-37.1,19.6l0.8,1.6L690,69h-0.4l0.2,0.3l-1.1,0.4c-0.1,0.2-0.3,0.3-0.4,0.5l0.1,1.1l0.5,0.2l-0.3,0.3
						l0.6,0.5l-0.3,0.2l0.8-0.2l-0.6,0.3l0.3,0.3l-0.3,0.2h1l-0.9,0.2l1.3,0.5l-0.7,0.3l2.9-0.2l-0.5,0.3l0.8,0.3l-0.4,0.5l0.4,0.2
						l1.7-0.2l-0.4-0.5l0.8-0.1l1.5-1.6l0.1-0.9l-0.3-0.3l1.3-0.4l-0.3-0.3l0.7,0.1l-0.1-0.4l1-0.2l-0.5-0.3l0.8,0.1l0.1-0.5
						l-0.7-0.2l1.2-0.1l-0.7-0.7l0.3-0.3l0.9,0.1l0.5-0.2l-0.2-0.3l0.6-0.2h1.4l0.1-0.4h0.3l0.4-0.6l0.6,0.2l-0.8,0.4l0.4,0.2
						l0.2-0.3l1.1,0.3l0.4-0.7l1,0.1l1.5-0.9l0.7-0.9l1.3-0.4l-0.3-0.7l0.6,0.7l1.4-0.1l0.5-0.3l3.5-0.3L720,62L720,62z"/>
					<polygon class="st4" points="756.3,49.9 755.7,50.1 756.3,50.3 758.8,50.2 757.1,50.5 760.6,50.8 762,50.6 763,49.9 
						760.9,49.9 761.1,49.6 759.7,49.9 759.8,49.5 759.4,49.4 759.1,50 756.9,49.4 756.7,49.6 757.1,49.8 756.5,49.6 756.7,49.9 
						755.2,49.9 					"/>
					<polygon class="st4" points="750.7,50.7 750.4,51 751,51.1 750.2,51.1 751.7,51.5 751,51.6 751.6,51.8 752.9,51.7 752.8,51.6 
						752.9,51.3 753.6,51.1 753.7,51.6 754.6,51.3 754.4,51.6 755.2,51.7 752.1,52.1 752.3,52.4 754.8,52.2 753.1,52.4 754.2,52.7 
						752.4,52.6 752.8,53 754.5,53.2 753.8,53.3 754.5,53.7 755.1,53.6 755.7,52.8 755.5,52.7 756,52.7 756.1,52.1 756.7,52.1 
						756.7,51.7 758.6,51.2 756.3,50.8 756,50.4 755.3,50.6 755.5,50.2 754.2,49.9 753.7,50.2 754.3,51.1 752.9,50.2 752.3,50.5 
						752.5,50.8 751,50.5 752.2,50.1 749.6,50.5 750.1,50.9 					"/>
					<path class="st4" d="M800.9,182l0.4,0.7l0.4-0.7l-0.6-3.6l-0.9-1.2l-0.5,0.3v1.3l-0.8,0.8l-0.4-0.2l0.1,0.9l-0.4,0.3l0.4,0.4
						l-0.8,0.5l-0.2-0.4l-0.1,1l-0.5-0.3l-0.5,0.5l0.2,0.7l-0.7-0.5l-2.2,0.8l-0.8,1.9l0.7,3.4l-1.8,3.1l0.3,3.2l2.9-1.6
						c2.2-1.7,4.8-4,6-5.1c0.2-0.2,0.4-0.4,0.7-0.6l-0.9-3.7L800.9,182L800.9,182z"/>
					<path class="st4" d="M792.4,60.9l-5.2,2l-0.3,0.8l-1,0.4l-1.9-1l1.5-0.4l-0.3-0.5l-3.2-0.6l0.9,0.4l0.1,1.3l0.8,0.4l0.1,1.5
						l-2.1-0.9l-2.1,1.2l1.4,1.5l-2.8-0.2l0.2-0.2l-1.6-0.5l-0.1,0.7l1.3,0.3l0.5,0.8l-0.7,0.2l-3.1-0.9l0.1-0.5l-0.6-0.6l0.3-0.7
						l-3-1.5l7,1.3l2.1-0.9l0.1-0.4l-0.4-0.7l-5.5-1.9l-2.8-0.2l-0.9-0.3l0.9-0.2l-1.2-0.3l-0.2,0.3l-0.7-0.2h-0.1l-1.2,0.2l0.2-0.3
						l-1.2-0.3l2.1-0.3l-1.8-0.5l-1,0.4l0.2-0.2l-0.4-0.2l0.5-0.3l-0.9-0.2l-0.4,0.8l-0.4,0.2l-0.1-0.7l-1.2,1l0.5-1l-0.8-0.2
						l-1.5,1.2l-1.6-0.3l0.5,0.7l-0.8-0.3l-1,0.9l0.1-0.8l-0.5,0.6l-0.1-0.4h-0.4l-0.1,0.3l0.4,0.3l-1.2-0.3l-0.6,0.6l0.2,0.3
						l-1.1,0.3l1,0.1l-1.2,0.2l0.1,0.4l-0.5-0.2l-0.6,0.7h0.5l-1.1,0.2l-1.2,0.9l0.1,0.6l-0.8,0.4l0.6,0.1l-0.7,0.3l0.2,0.3
						l-0.3-0.3l-0.2,0.4l0.3,0.2l-1,0.3l0.3,0.2l-0.3,0.3l-0.5-0.1l-1.2,0.9l0.4,0.4l-2.7,0.8l-0.6,0.2l0.6,0.4h-1.2l0.2,0.4
						l-1.5,0.1l1.3,0.3l-1.4,0.2l0.3,0.1l-0.3,0.7l1.5-0.3l0.5,0.3l0.5-0.5l-0.2,0.4h0.3l-0.8,0.5l-1.9-0.1l0.1,0.4l0.5-0.1
						l-0.6,0.4l0.4,0.1l-0.1,0.5l0.9-0.9h0.8l-1.4,0.9l0.6,0.1l-1.2,0.4h1.2l-1,1l1.3,0.5l-0.1,0.3l1.1,0.1l2-1.5l0.7,0.1v-0.9
						l0.3,0.2l0.2-0.5l0.1,0.9l0.5,0.2V75l0.8,0.9l-0.1,0.7l1.1,1.1l-0.4,0.4L753,79l-0.2,0.2l1.4,0.1l0.3-0.9l1.7-0.2l0.7-1.8
						l0.1-1.2l-0.3-0.2l0.4-0.1l-0.7-0.2l2.5-0.9l-0.7-0.1l0.9-0.7l-1.5-1l-0.3,0.3v-2.8l1-0.6l3.2-1.9l-0.4-0.5l0.3-0.7l0.6-0.3
						l-0.3-0.3l2.2-0.2l1.3,0.6l0.3,0.7l-0.9,0.2l-2.8,2.3l-0.6,0.5l0.8,1.5l-0.3,1.1l1.5,0.4l0.4,0.5l-0.2,0.2l4.9-1l1-0.2v0.5
						l1.8,0.5l-2.2,0.2l-0.3,0.4l-2.2-0.3l-2.2,0.7l0.2,1.1h0.9l-0.2,2l-1.8-1.1l-0.9,0.2l-0.7,1.1l0.3,2.6l-0.6-0.2l0.4-0.9
						l-1.5,1.8l-0.9,0.2l-0.2-0.7h-1.5l-3.5,1.4l-1.4-0.8l-0.6,0.2l0.3-0.2l-2.1,0.7l0.3-0.5l-1.1-0.1l-0.5-0.7l0.1-1.2l1.4-0.8
						l-0.9-0.4l0.4-1.6l-2.3,1.1l-0.3,1.9l0.6,0.3V80l0.3,0.5l-0.3,0.3l0.4,0.7l-0.5,0.1l0.1,0.7l-1-0.6l-0.8,0.4l0.5,0.3l-0.4-0.1
						h-1.8l-0.2,1.4l-0.3-0.2v-0.7l-1,1.4l0.9,0.3l-1.6,0.6l-0.9,0.3l-1,0.2l-0.2,1l-1.6,0.7l0.3,0.4l-1.8,0.1l-0.9-0.5l0.4,1.6
						l-2.2-0.2l-1.5,0.4l0.3,1l3,0.9h-0.4v0.6l1,0.7l0.4,1.6l-0.3-0.3l-0.6,2.8l-0.6,0.3l-7.4-0.4l-1.5,1l0.7,1l-0.3,0.7l0.1,1.3
						l-1.2,3.2l0.9,0.3l-0.3,2.2l1.8-0.2l1,0.2l1.3,1.5l1.5-0.8l2.8-0.2l2.7-2.8l-0.4-1l1.5-2.1l2.8-1.5l0.1-0.9l0.1-1.2l1-0.4
						l1.2,0.2l1.3,0.4l1.6-1.1l1.5-0.9l1.6,0.7l1.2,2.3l5.3,3.4l0.8,1.9l-0.6,0.9l0.4,0.4l1.3-1.7l-0.1-0.6l-0.7-0.4l0.3-0.9
						l0.5-0.3l1.5,1l0.1-0.3l-0.6-0.9l-2.5-1l0.1-0.8l-0.9,0.2l-0.6-0.4l-1.5-2.2l-1.3-0.8l-0.3-1.8l1.6-0.3l0.3,1l0.9-0.6l1.7,2.6
						l1,0.2l0.8,0.6h-0.6l2.8,1.6l0.3,0.2l-0.3,2l1,1.1l1.2,1l-0.4,0.2l0.6,0.8h1.8l1.7,1l-0.1-0.8l-1.8-1.1l0.5-0.1l-0.1-0.5
						l0.4,0.2l-0.9-1.2v-0.9l1.1,0.9l-0.2-0.4l0.7,0.4l-0.2-0.7l0.6,0.3l-0.8-0.7l0.8-0.4l2.1,0.3l1,0.1l-0.7,0.9l1.5-1.3l1.6-0.1
						l0.1-0.3l-1-0.4l-0.3-0.5l-0.7-0.9l1.2-1.9l0.2-1.8V95l0.7-0.5l0.1-0.8l0.9-1l-0.3-0.4l0.4,0.2l1.5-0.9l0.4,0.5h-0.7l0.5,0.1
						l-0.3,0.3l2.2,0.3l-1.2,0.9l1,0.3l0.2,0.9l0.7,0.2l1.6-1l1.1,0.1l0.1-0.6l-1.8,0.2l-0.7-0.9l-1-0.4l0.5-0.2l1,0.7l0.2-0.9v0.5
						l0.8-0.8l3.7-1l0.3,0.3l-0.9,0.6h-0.9l0.9,0.9l-2,1.3l6,3.5l0.6,1.1l-0.1,0.7l-1.3,0.9l-2.7,0.1l-2.2-0.5l-1.6-1.1l-2.1,0.1
						l-2.6,1.5l-2.3-0.3l0.1,0.5l0.8,0.3l-3.7,0.4l-0.4,0.6l-0.3,0.8l0.9-0.1v1.3l0.4,0.3l-0.8-0.3l-0.1,0.6l1,0.3l0.3,1.5l1.2-0.1
						l-1,0.6l1.4-0.3l1.7,1l1.3-1l2.4,1.3l2.1-1.2l1.1,0.4l0.6-0.4v1.6l0.2,1.6l-1,2.4l-1,2.7l-1.3,0.3l-1.2-0.3l-0.4-0.4l-1.5,0.1
						l-2.2,1l-4.9-1.3l-2.5-0.8l-0.4-0.8l-2.4-0.1l-1.2,1l-0.1,2.1l-1.2,0.6l-1.6-1l-2.3-0.6l-0.8-1.5l-4.7-1.2l-1.8-1.2l1.6-1.9
						l-0.8-1.4l0.6-1.3l-0.7,0.3l-1-0.8L748,106l-4.6,0.1l-4.6,0.6l-4.1,2.2l-2.9-0.2l-1.2-1.1l-0.6,0.3l-1.2,2.4l-3.2,2.4l-1,1.7
						l0.1,1.9l-0.5,0.8l-0.4,0.6l-3.5,2.2l-0.7,1.4l-1.3,1l-0.5,1.6l-2.7,4.2l-0.4,1.7l1,1l-0.4,1.5l0.5,1.3l-0.8,3.6l-0.5,1.4
						l-0.9,0.6l1.3,1.7l-0.3,0.8v0.9l1.1,1.1l1.3-0.4l-0.8,0.4l0.5,1.1l2.3,2.8l0.4,1.8l1.9,1.4l2.8,2.8l2.3,1l3.6-1l2.2,0.1
						l1.5,0.6l4.2-2.1l1-0.2l1.1-0.1l1.9-0.1l1,0.8l0.6,0.6v0.9l1,0.8l2.8-0.8l0.8,0.9l0.9,0.2l0.3,1.1l-0.3,1.6l-0.5,1.4l0.3,0.3
						l-0.3,0.7l0.7,0.5l-0.8-0.1l-0.1,1l-0.6,0.5l0.7,1.7l2.4,3.1l1.2,1.6l0.3,1.1l0.1,0.6l1.2,3l-0.3,1.4l0.9,2.8l-0.2,1.8
						l-1.6,2.2l-1,5.3l0.1,1.2l3.4,6.6v2.4l1,4.8l1.7,1.9l1.8,5.3c0,0,0,0,0.1,0c0.5-0.1,1-0.2,1.5-0.3c2.5-0.5,7.9-1.8,13.8-4.1
						c1-0.4,2-0.8,3-1.3l0.9-3.4l-0.5-0.2l0.4-0.6l2.6-1.1l0.8-1l0.3-2.9l-1-2.3l0.1-1l3.6-3.4l2.2-0.9l2-2.2l0.3-7.7l-0.7-0.6
						l-0.5-1.6l0.2-2.7l-0.9-1.2l0.6-2.5l1.4-2.9l1.5-1.6l1.4-2.1l4.2-3.6l2.4-2.8l1.5-2.4l1.5-3.8l0.9-3l0.6-0.1l-0.4-0.2l0.2-2
						l-0.7-0.3l-1.9,0.8l-6.2,1.6l-1.5-1.6l-0.9-0.2l1-0.7l-0.4-1.2l-2.4-2.6l-1.4-0.5l-0.4-0.9l-0.3,0.4l-1.8-4.3l-1.5-1.3
						l-0.9-4.6l-1.6-1.6l-0.3-1.1l0.4-0.1l-0.8-0.8l-2.4-5.2l-1-1.4l-0.3-1.6l2.1,3.3l0.4-0.2l0.5-2.2h0.2l-0.3,2h0.7l3.2,5.5
						l1.3,0.8l1,2.1l0.4,2.6l2.2,1.7l2.5,4.7v1.6l1.3,3.9h1.8l1.1-1l3.8-1l1-1l3.5-1.3l0.1-0.9l0.9-0.6l2.4-0.5l0.8-1.3l1-0.3
						l0.4-1.1l1.3-0.5l0.1-2l0.7-0.1l1.4-3l-1.5-1.6l-2.5-0.9l-0.8-1l-0.2-1.1l0.1-1l-0.4,0.3l-2.4,2.9l-2.7,0.1l-0.7-0.4l0.1-0.5
						l0.1-1.8l-0.6-0.4l-0.3,2.1l-1-1.6l-0.2-1.4l-2.3-2.8l-0.9-1.1l0.7-0.5l-0.3-0.4l0.7-0.1l0.3-0.8l0.9,0.9l0.5-0.3l2.2,3.4
						l2.9,1.7l1.3,0.2l2.2-0.9l0.6,0.3l0.9,1.8l5.4,0.8l4.3-0.2l1.9-0.1l1.6,2.2l0.7,0.2l1.3,1.4l1.5-0.2
						C826.7,99.8,813.1,75.7,792.4,60.9L792.4,60.9z M772,73l-1.3-1.9l0.9-0.5l1.5,0.7l0.6,0.9L772,73L772,73z"/>
					<polygon class="st4" points="771.6,70.6 770.7,71.1 772,73 773.7,72.2 773.1,71.3 					"/>
				</g>
				<g>
					<path class="st0" d="M894.7,197.1c-5.1-7.6-11.9-17.3-11.9-17.3l-7.5-11.8l6.3-16.2c23.2-19.9,33.5-30.5,30.9-57.7
						C910,67,864.1,48,847.4,51.8c-16.6,3.8-33.1,17.1-38,23c-4.9,5.8-0.7,6.1-1.4,11.5c-0.7,5.4-8,11-13.8,14.3
						c-5.9,3.3-9.1,5.2-8.9,7.5c0.2,2.3,6.1,6.8,6.1,6.8s-0.7,2.6-1.9,5.6c-1.2,3.1-1.6,4-0.7,5.2c0.9,1.2,8.2,4.7,8.2,4.7h-6.8
						c-4.5,0-4.5,3.8-2.1,6.6c2.3,2.8,1.4,4.2-1.4,7.5c-2.8,3.3-4.2,6.1-1.9,10.8c2.3,4.7,14.1,4.2,14.1,4.2s5.6,9.9,7.5,18.3
						c1.9,8.4,11.2,20.6,13.6,27.2c2.3,6.6-1.4,15-1.4,15c-9.3,10.7-15.2,23.2-18.4,31.7l-1.5,4.2
						C838.2,250,872.5,228.2,894.7,197.1L894.7,197.1z"/>
					<path class="st0" d="M772.9,236.2c0,0-1.4-12.2-2.2-14.4c-0.8-2.2-7.3-10.5-7.3-10.5c-5.6,1.4-14,1.9-14,1.9
						s-9.8-15.3-11.6-18.6c-1.8-3.3-11.3-11.7-15.7-16.4c-4.4-4.8-6.9,1.1-5.8,5.8c1.1,4.8,7.7,13.5,8.4,16.4
						c0.7,2.9-4.8,6.2-4.8,6.2s-11.7-4.4-17.9-7.3s-12-9.1-16.1-13.1c-4-4-11-9.1-13.2-9.1s-2.9,2.9-1.1,5.5
						c1.8,2.6,11,15.7,14.6,19.4c3.7,3.6,9.1,11.3,12,16.4c2.9,5.1,8.4,6.6,21.2,11c12.8,4.4,14.2,9.9,15,13.5
						c0.2,1,0.2,2.9,0.2,5.2c0,0.3-0.1,1.3-0.2,2.7c12.7,4,26.2,6.3,40.2,6.6l-0.9-11.4L772.9,236.2L772.9,236.2z"/>
				</g>
				<g>
					<path class="st5" d="M833.6,168.3c-1.9-0.8-33.7-7.1-33.7-7.1s5.5,9.4,6.2,12.9c0.6,3.5,1.6,7.6,4.1,11.6
						c2.5,4,9.8,16.6,10.3,18.8c0.5,2.2-0.8,14.9-0.8,14.9l15.2-10.8c0,0-1.4-4.1-2.4-7.8c-1-3.6-0.3-7.9-0.2-12.5
						c0.2-4.6,1.4-10.1,3-14.1C836.9,170.3,835.5,169.1,833.6,168.3L833.6,168.3z"/>
					<path class="st5" d="M872,55.4c-33.2-10.3-50.8,7.6-58.4,14.9c-7.6,7.3-6.8,9.2-6.2,12.3c0.6,3.2-0.2,6.5-2.2,9.8
						c-2.1,3.3-11.4,8.2-14.2,9.5c-2.8,1.3-5.7,3.8-5.4,6.5c0.3,2.7,6,6,6,6s-1.6,4.1-3.2,7.4c-1.6,3.3-0.3,3,0.5,3.8
						s8.5,4.6,8.5,4.6s-4.1,0-7-0.1c-2.8-0.2-3,0.3-3.3,1.7c-0.4,1.6,0.8,4.3,1.9,6c1.1,1.7-0.2,4-1.4,5.7
						c-1.3,1.7-5.2,4.9-2.8,10.9c2.4,6,15.5,4.7,15.5,4.7c-9.2-0.3-6.5-5.2-1.9-9.9c2.1-2.2,10-7.9,13.3-10.6c3.3-2.7,6.5-3,1.4-7.9
						c-8.8-8.5-3.5-10.4-0.2-13c3.3-2.5,12.5-5.8,13.8-9c1.3-3.2-3.8-7.8-3.8-7.8s4.8,0.3,7.4,0.2c2.7-0.2,2.2-2.1-1.4-5.9
						c-3.6-3.8-4.4-6.5-4.7-10c-0.3-3.5-8.2-4-8.5-4.4c-0.3-0.5,0.6-2,1.3-2.8c3.4-3.9,21.1-29.2,56.3-16.6
						c40,14.3,40.4,46.2,40.4,46.2C915.7,92.3,905.3,65.7,872,55.4L872,55.4z"/>
				</g>
				<g>
					<path class="st4" d="M861,139.5c-2.7-0.4-4.9,0.5-6.4,2.2c-1.5,1.8-0.2,4.4,0.9,4.6c0.7,0.1,1.8-0.8,1.2-1.5
						c-0.6-0.7-0.4-2.4,1.3-3.2c1.8-0.8,3.4,0.1,5.2,0c2.6-0.1,6-1.4,7.8-4.2c1.3-2.1,3-5.3,0.9-9c-2.8-4.9-8.7-2.5-9-1.8
						c-0.9,2.2-0.3,1.7,1,1.1c1.3-0.6,3.7-0.7,5.6,1.9c1.4,1.9,0.3,4.6-0.7,6.3C867.8,137.7,864.5,140,861,139.5L861,139.5z"/>
					<path class="st4" d="M819,97.3c-1.3-1.2-5.2-4.3-6.3-5c-1.1-0.7-1.5,0.5-2,1.5c-0.5,1-0.7,3.8-0.7,4.5c0,0.6,0.8,0.6,3,1.1
						c1,0.2,8.4,0.9,8.4,0.9C821.2,99.7,820.2,98.5,819,97.3L819,97.3z"/>
					<path class="st4" d="M791,111.3c-1.7-0.4-1.8-0.3-1.6,0.1c0.1,0.2,2.4,1.7,3.9,2.6c1.5,0.8,2.2,1,2.6,0.8
						c0.5-0.2,1.4-0.4-0.1-1.8C794.3,111.6,792.7,111.7,791,111.3L791,111.3z"/>
				</g>
				<g>
					<path class="st4" d="M864.1,51.5c-30.7-7-53.6,19.5-56,22.5c-4,4.9-2.2,5.6-1.6,9.6c0,0,0.5,5.4-3,9.1
						c-2.7,2.9-8.3,6.1-12.1,8.2s-6.5,2.9-7,5.1c-0.5,2.2-1,3.3,4.4,7l2.3,2c-0.7,1.9-0.7,2.1-2.1,4.9c-1.3,2.5-3.1,5.1-0.7,6.2
						c2.3,1.1,7.2,3.6,7.2,3.6s-5.6-0.4-6.7-0.4s-2.3,0.8-2.6,2.6c-0.3,1.6-0.5,2.5,1.3,4.6c1.8,2.2,1.6,4.1-0.2,5.8
						c-1.8,1.6-5.9,5.8-4.7,10.6c1.3,5.2,3.9,6.9,13.5,7.7c0.4,0.1,0.8,0.1,1.2,0.1c0.2,0.2,4.5,5.8,5.7,8.4c1.3,2.7,2,6.5,3.3,11.2
						c1.1,4.2,3.7,7.8,6.7,12.3c0.4,0.5,0.7,1.1,1.1,1.6c3.4,5.2,5.4,9.9,5.6,12.6c0.2,2.5-1.2,10.3-1.4,11.4
						c-0.6,0.6-1.2,1.2-1.8,1.8c-0.6,0.6-2,2.1-2.8,3c-7.8,9.7-13.1,20.6-16.4,28.9c0,0.1-0.1,0.2-0.2,0.6c-0.1,0.4-0.3,0.9-0.6,1.5
						c-0.2,0.6-0.5,1.3-0.8,2.2c40.4-5,75.6-26.2,99.5-56.7c0.7-1,1.4-1.9,2.1-2.9c-0.7-1-1.3-1.9-2.1-3.1c-0.6-0.8-0.6-0.8,0,0
						c-0.2-0.3-0.5-0.7-0.7-1c-5.5-7.8-13.1-18.4-13.1-18.4c-2-3.1-4.2-5.8-3.8-7.2c0.4-1.4,3.9-13.1,5.2-14.4
						c1.3-1.3,29.9-18.7,32.7-43S904.2,60.7,864.1,51.5L864.1,51.5z M911.4,110c-1.1,9.3-6.4,22.1-29.3,38.7l-1.7,1.3
						c-1.4,2.8-6.2,16.9-6.2,16.9c-0.5,1.2-0.3,3.1,2.3,7c0.6,0.8,7.6,10.8,13.2,18.8c1,1.4,1.9,2.8,2.8,4.1
						c-22,28.1-53.6,48.5-91.3,55.6c0.3-0.9,0.7-1.8,0.7-1.9c4.2-10.7,9.2-19.6,15-26.1c14.4-16.2,33.2-21.6,44.7-23.3
						c3-0.5,5.6-0.7,7.5-0.8c0.2,0,0.4,0,0.6-0.1c1-0.1,1.9,0,2-0.2c0.1-0.5-1.1-0.9-1.3-0.9c-1.2-0.3-2.9-0.4-5.4-0.2
						c-15.5,1.6-34.9,9.2-44.1,17.1c0.4-2.7,0.9-6.1,0.9-8.2c0-0.2,0.1-1.9,0.1-2.1c-0.2-3.1-2.7-7.8-5.9-12.9
						c-0.2-0.4-0.5-0.7-0.7-1.1c0,0-6.5-9.1-7.2-13.5c-0.7-4.4-0.2-5.1-1.2-7.3c-1.1-2.4-2.7-6-5.2-9.8c4.6,0.2,16.7,0.5,18.5,0.7
						c2.2,0.2,10.1,1.1,14.3,1.1c5.7,0,9.4-1.2,13-9.9c0,0,0.9,1.4,3.4,2.6c2.5,1.2,7.6-1.4,9.6-2.5c3.6-1.9,13.8-8.1,16.6-13.4
						c2.8-5.3,3.4-14.3-1.7-19.5c-4.3-4.3-11.8-0.2-12.4,0.2c-0.8,0.7-0.9,0.7-0.4,1.9c0.3,0.7,0.6,0.5,1.6,0
						c1.2-0.6,7.4-2.8,9.8,0.3c2.5,3.3,3.5,8.3,0.9,14.9s-10.1,10.4-12.1,11.6c-4.6,2.9-8.8,4.6-10.3,3.8c-1.7-0.9-3.8-1.7-3.9-6.7
						c0-0.6-0.8-0.5-1.4,0.4c-0.5,0.9-2.5,5.8-4.8,9.2c-1.5,2.2-3.6,4.1-10.2,3.8c-7.4-0.2-12.5-0.7-15.8-0.9
						c-3.1-0.2-22.4,0-27.2-1.6c-2.1-1.1-3.2-2.4-3.5-4.2c-1-4.7,0.8-6.8,3.2-8.9c1.5-1.4,2.7-3,2.7-4.7c0-1.6-3.1-3.6-3.4-4.6
						c-0.3-1,0.2-2.4,0.6-3c0.7-1.1,10.7,0.5,10.9-0.5c0.3-1-9.7-5.5-10.1-6.5c-0.4-1,0.3-2.6,0.8-3.5c0.5-0.9,2.6-6.7,2.6-6.7
						s-3.5-2.6-3.6-2.7c-2.7-1.8-2.4-2.8-2.4-3.4c0-0.9,0.2-1.9,0.5-2.3c1.5-2,13.7-7.1,16.6-10.2c2.9-3.1,5-5.2,5.1-8
						c1.5,0.1,6,3.5,7.3,4.4c0.8,0.6,2.9,2.1,3.1,2.3c0.2,0.2,0.8,0.5,0.8,0.5c-1.4-2.3-8-8.2-9.8-10c-1.3-1.3-2.1-3.5-1.9-5.1
						c0-0.3,0.1-0.6,0.2-0.8c0.3-0.7,0.7-1.4,1.4-2.3c0.9-1.2,23.2-28.3,52.9-21.5c18.1,4.2,31.4,11.7,39.8,22.3
						c6,7.7,9.2,17,9.2,27C911.7,106.2,911.6,108.1,911.4,110L911.4,110z"/>
					<path class="st4" d="M733.4,248.9c0,0.7-0.1,1.5-0.1,2.4c13.7,4.1,28.2,6.2,43.2,6.3c-0.1-0.7-0.1-1.4-0.2-2.1
						c0-0.4-0.1-0.7-0.1-1.1c-1.1-10.8-2.5-23.7-3.6-30.5c-1-6.4-4.4-8.7-7.8-12.8l-2.9,0.6c0,0,6.1,6.9,6.9,8.9
						c0.6,1.4,2.5,15.7,3.8,33.8c-4.2-0.1-8.6-0.3-12.7-0.7c-0.1-1.8-0.2-3.1-0.2-3.2c-0.7-9.5-1.4-20.4-1.6-22.7
						c-0.5-4.2-2.5-8.7-11.5-20.9c-6.2-8.5-7-11.9-8.2-14.2c-0.5-1-1.2-1.8-2.4-2.7c-4-3-11.2-10.7-13.6-12.9c-2.5-2.2-5-3.5-7,1
						c-2,4.5,0.9,11,4,15.5c3.1,4.5,4.3,6.1,3.8,8.9c-0.3,1.9-3.2,3.4-3.2,3.4s-10.8-4.8-15-6.6c-4.2-1.7-3.7-1-5.7-3
						s-9.4-8.1-10.9-9.1c-1.5-1-2.6-3.8-6.5-6.8c-4-3-7-5.7-10.5-3.7c-3.5,2-1.9,3.8,0.9,8.7c2.9,5.1,5.8,8.4,9.5,13.1
						c3.7,4.7,8.6,9.6,10.8,12.6c2.2,3,6.1,12.1,12.1,14.1c6,2,22.2,8,25.4,11.4c0.2,0.3,0.5,0.5,0.7,0.8c1.9,1.9,3,3.3,2.7,11.2
						C733.4,248.7,733.4,248.8,733.4,248.9L733.4,248.9z M732.6,235.5l-0.7-0.7c-0.3-0.4-0.7-0.7-1.2-1.1
						c-6.2-4.7-24.4-10.8-25.3-11.1c-3.6-1.2-6.7-6.4-8.7-9.9c-0.8-1.3-1.4-2.4-2.1-3.3c-1.2-1.5-2.8-3.4-4.8-5.6
						c-2-2.2-4.2-4.7-6.1-7.1l-1.7-2.1c-2.9-3.7-5.2-6.6-7.6-10.7l-0.8-1.5c-0.7-1.2-1.5-2.6-1.7-3.2c0.1-0.1,0.3-0.2,0.6-0.4
						c1.4-0.8,2.7-0.1,6.5,2.7l1.1,0.8c2.1,1.6,3.3,3.1,4.3,4.4c0.8,1,1.5,1.9,2.4,2.5c1.3,0.9,8.5,6.8,10.5,8.8
						c1.7,1.6,2.2,1.9,4,2.6l2.6,1c0,0,14.6,5.7,14.7,6c-1.3,1.3-1.6,3-0.3,2.1c2.2-1.6,8.9-5,7.8-8.6c-1.2-3.6-2.6-6-4.8-9.1
						c-2.1-3-4.4-7.4-4.4-10.6c0-0.9,0.2-1.8,0.5-2.6c1.5-2.4,2.8-1.2,3.9,0c1.2,1.3,2.2,2.8,3.6,4.3c2.6,2.8,6.2,6.4,9,8.5
						c0.6,0.4,0.9,0.8,1.2,1.1c0.5,0.6,0.7,1.4,1.4,2.8c1.3,2.4,2.1,5.2,6.8,11.5c10.2,13.8,11.7,18.3,12,20.3
						c0.2,1.9,0.8,12.8,1.3,23.4c0,0.1,0.1,1.1,0.1,2.6c-5.3-0.6-10.5-1.5-15.6-2.7c-1.6-0.4-3.3-0.9-4.9-1.4c0-0.9,0.1-1.6,0.1-2.2
						C735.9,240.3,734.9,237.8,732.6,235.5L732.6,235.5z"/>
				</g>
			</g>
		</g>
	</g>
</g>
</svg>
